<svg xmlns="http://www.w3.org/2000/svg" width="24.36" height="16.24" viewBox="0 0 24.36 16.24">
  <path id="Icon_awesome-eye" data-name="Icon awesome-eye" d="M24.213,12A13.565,13.565,0,0,0,12.18,4.5,13.567,13.567,0,0,0,.147,12a1.368,1.368,0,0,0,0,1.234,13.565,13.565,0,0,0,12.033,7.5,13.567,13.567,0,0,0,12.033-7.5A1.368,1.368,0,0,0,24.213,12ZM12.18,18.71a6.09,6.09,0,1,1,6.09-6.09A6.09,6.09,0,0,1,12.18,18.71Zm0-10.15a4.031,4.031,0,0,0-1.07.16A2.024,2.024,0,0,1,8.28,11.55a4.051,4.051,0,1,0,3.9-2.99Z" transform="translate(0 -4.5)" fill="#808495"/>
</svg>
