<svg id="ic_Task_List" data-name="ic_Task List" xmlns="http://www.w3.org/2000/svg" width="31" height="31" viewBox="0 0 31 31">
  <path id="Shape" d="M25.264,31H5.735A5.741,5.741,0,0,1,0,25.265V5.735A5.741,5.741,0,0,1,5.735,0H22.32a1.55,1.55,0,0,1,0,3.1H5.735A2.638,2.638,0,0,0,3.1,5.735v19.53A2.638,2.638,0,0,0,5.735,27.9h19.53A2.638,2.638,0,0,0,27.9,25.265V14.1a1.55,1.55,0,1,1,3.1,0v11.16A5.741,5.741,0,0,1,25.264,31Zm-9.257-9.3a1.536,1.536,0,0,1-1.123-.482l-6.708-7.06A1.549,1.549,0,0,1,9.3,11.541a1.538,1.538,0,0,1,1.125.483L15.9,17.785,28.233,2.14a1.55,1.55,0,0,1,2.434,1.92L17.225,21.109A1.541,1.541,0,0,1,16.007,21.7Z" fill="#92929d"/>
</svg>
